# xmcd
#
# Track frame offsets:
#	150
#	16150
#	30305
#	45010
#	62865
#	80387
#	91667
#	105400
#	117017
#	127455
#	154690
#	165700
#
# Disc length: 2376 seconds
#
# Revision: 1
# Processed by: cddbd v1.5.1PL0 Copyright (c) Steve Scherf et al.
# Submitted via: audiograbber 1.83.01
#
DISCID=8109460c
DTITLE=Various Artist - America Superstars Of Country
DYEAR=1994
DGENRE=Country
TTITLE0=Delbert McClinton - Stir It Up
TTITLE1=Desert Rose Band - He´s Back And I´m Blue
TTITLE2=Bellamy Brothers - If I Say You Had A Beautiful Body Would You Hold It 
TTITLE2=Against Me
TTITLE3=Hank Williams Jr. - All My Rowdy Friends Have Settled Down
TTITLE4=Wynonna Judd - I Saw The Light
TTITLE5=Wayne Newon and Ronnie McDowell - She´s My Saturday Night Special
TTITLE6=Merle Haggard - A Bar In Bakersfield
TTITLE7=Dave Dudley - Six Days On The Road
TTITLE8=Willie Nelson - Funny How The Time Slips Away
TTITLE9=Marshall Tucker Band - Can´t You See
TTITLE10=Roger Miller - King Of the Road
TTITLE11=Susan Raye - L.A. International Airport
EXTD=
EXTT0=
EXTT1=
EXTT2=
EXTT3=
EXTT4=
EXTT5=
EXTT6=
EXTT7=
EXTT8=
EXTT9=
EXTT10=
EXTT11=
PLAYORDER=
